<svg xmlns="http://www.w3.org/2000/svg" viewBox="0 0 18 18">
    <g fill="none" fill-rule="evenodd" stroke-opacity=".05">
        <g fill="#000" stroke="#000" stroke-width=".5">
            <g>
                <g>
                    <g>
                        <path d="M12.064.25c.128 0 .255.049.353.147.098.097.146.225.146.352 0 .128-.048.256-.146.354h0L7.114 6.407l5.303 5.303c.098.097.146.225.146.353 0 .128-.048.256-.146.354-.097.097-.225.146-.353.146-.128 0-.256-.049-.353-.146h0L6.407 7.114l-5.303 5.303c-.097.097-.225.146-.353.146-.129 0-.257-.05-.354-.146-.098-.098-.147-.226-.147-.354 0-.128.049-.256.147-.353h0L5.7 6.407.397 1.103C.299 1.005.25.877.25.749.494.3.622.25.75.25s.256.049.354.147h0l5.303 5.302L11.71.397c.097-.098.225-.147.353-.147z" transform="translate(-3721.000000, -143.000000) translate(3526.000000, 70.000000) translate(195.000000, 73.000000) translate(2.592950, 2.593250)"/>
                    </g>
                </g>
            </g>
        </g>
    </g>
</svg>
