<svg xmlns="http://www.w3.org/2000/svg" viewBox="0 0 40 40">
    <g fill="none" fill-rule="evenodd">
        <g fill="currentColor">
            <g>
                <g>
                    <path d="M12.667 22.667c-5.514 0-10-4.487-10-10 0-5.515 4.486-10 10-10s10 4.485 10 10c0 5.513-4.486 10-10 10m16.277 4.389l-6.43-6.43c1.76-2.175 2.82-4.942 2.82-7.96C25.333 5.672 19.662 0 12.666 0 5.672 0 0 5.67 0 12.667c0 6.996 5.672 12.666 12.667 12.666 3.018 0 5.786-1.058 7.961-2.821l6.43 6.43c.26.26.602.391.943.391.342 0 .683-.13.943-.39.521-.522.521-1.366 0-1.887" transform="translate(-473 -46) translate(473 46) translate(5.333 5.334)"/>
                </g>
            </g>
        </g>
    </g>
</svg>
