<svg xmlns="http://www.w3.org/2000/svg" viewBox="0 0 40 40">
    <g fill="none" fill-rule="evenodd">
        <g fill="currentColor">
            <g>
                <g>
                    <path d="M5.981 19.468h17.37c-.436-.757-.684-1.63-.684-2.56v-6.49c0-4.274-3.59-7.751-8-7.751-4.412 0-8 3.477-8 7.752v6.489c0 .93-.25 1.803-.686 2.56M28 22.135H1.333C.596 22.135 0 21.537 0 20.8c0-.736.596-1.333 1.333-1.333 1.47 0 2.667-1.148 2.667-2.56v-6.49C4 4.674 8.785 0 14.667 0c5.881 0 10.666 4.673 10.666 10.419v6.489c0 1.412 1.196 2.56 2.667 2.56.736 0 1.333.597 1.333 1.333s-.597 1.334-1.333 1.334m-13.333 6.484c-1.416 0-2.738-.744-3.452-1.944-.376-.632-.17-1.451.462-1.828.632-.376 1.452-.168 1.83.464.47.792 1.849.792 2.321 0 .377-.632 1.196-.84 1.828-.464.632.377.84 1.196.464 1.828-.716 1.2-2.039 1.944-3.453 1.944" transform="translate(-531 -46) translate(531 46) translate(5.334 5.69)"/>
                </g>
            </g>
        </g>
    </g>
</svg>
