<svg xmlns="http://www.w3.org/2000/svg" width="42" height="42" viewBox="0 0 42 42">
    <g fill="none" fill-rule="evenodd" stroke="#FFF" stroke-linejoin="round" stroke-width="2">
        <path d="M30.544 25.734v-7.427c0-4.483-2.971-8.249-7.01-9.382V7.587C23.533 6.159 22.4 5 21 5c-1.399 0-2.534 1.159-2.534 2.587v1.338c-4.04 1.133-7.01 4.9-7.01 9.382v7.427A7.356 7.356 0 0 1 8 32h26a7.355 7.355 0 0 1-3.456-6.266zM26 32v.77c0 2.336-2.24 4.23-5.003 4.23C18.237 37 16 35.106 16 32.77V32"/>
    </g>
</svg>
