<svg height="506pt" viewBox="-50 0 505 506" width="506pt" xmlns="http://www.w3.org/2000/svg"><path d="m400.867188 115.875v379.480469c0 5.519531-4.460938 10-10 10h-376.359376c-5.539062 0-10-4.480469-10-10v-478c0-5.519531 4.460938-10 10-10h279.378907c2.679687 0 5.261719 1.058593 7.140625 2.980469l96.980468 98.519531c1.839844 1.878906 2.859376 4.402343 2.859376 7.019531zm0 0" fill="#1c868e"/><path d="m400.867188 115.875v379.480469c0 5.519531-4.460938 10-10 10h-345.9375c-5.523438 0-10-4.480469-10-10v-478c0-5.519531 4.476562-10 10-10h248.957031c2.679687 0 5.261719 1.058593 7.140625 2.980469l96.980468 98.519531c1.839844 1.878906 2.859376 4.402343 2.859376 7.019531zm0 0" fill="#40c4df"/><path d="m4.5 179.808594h396.375v245.769531h-396.375zm0 0" fill="#fff"/><path d="m4.507812 179.816406h30.421876v245.757813h-30.421876zm0 0" fill="#d8d6d7"/><path d="m33.527344 315.964844c-9.210938 0-16.417969 7.210937-16.417969 16.414062 0 9.207032 7.207031 16.417969 16.417969 16.417969 8.863281 0 16.078125-7.363281 16.078125-16.417969 0-9.050781-7.214844-16.414062-16.078125-16.414062zm0 0" fill="#40c4df"/><path d="m130.117188 315.050781c-4.222657 9.21875-12.328126 14.089844-23.449219 14.089844-16.957031 0-28.351563-12.492187-28.351563-31.085937 0-18.671876 11.394532-31.21875 28.351563-31.21875 11.132812 0 19.234375 4.910156 23.441406 14.199218l1.300781 2.878906h24.5l-2.5625-6.652343c-7.394531-19.191407-24.84375-30.644531-46.679687-30.644531-28.65625 0-50.265625 22.113281-50.265625 51.4375 0 29.175781 21.613281 51.175781 50.265625 51.175781 21.84375 0 39.292969-11.355469 46.675781-30.371094l2.585938-6.664063h-24.503907zm0 0" fill="#40c4df"/><path d="m261.375 288.660156h-30.5v-30.5c0-6.058594-4.914062-10.96875-10.972656-10.96875s-10.972656 4.910156-10.972656 10.96875v30.5h-30.5c-6.058594 0-10.972657 4.914063-10.972657 10.972656 0 6.0625 4.914063 10.972657 10.972657 10.972657h30.5v30.5c0 6.058593 4.914062 10.972656 10.972656 10.972656s10.972656-4.914063 10.972656-10.972656v-30.5h30.5c6.058594 0 10.972656-4.910157 10.972656-10.972657 0-6.058593-4.914062-10.972656-10.972656-10.972656zm0 0" fill="#40c4df"/><path d="m377.296875 288.660156h-30.5v-30.5c0-6.058594-4.910156-10.96875-10.972656-10.96875-6.058594 0-10.96875 4.910156-10.96875 10.96875v30.5h-30.5c-6.0625 0-10.972657 4.914063-10.972657 10.972656 0 6.0625 4.910157 10.972657 10.972657 10.972657h30.5v30.5c0 6.058593 4.910156 10.972656 10.96875 10.972656 6.0625 0 10.972656-4.914063 10.972656-10.972656v-30.5h30.5c6.0625 0 10.972656-4.910157 10.972656-10.972657 0-6.058593-4.910156-10.972656-10.972656-10.972656zm0 0" fill="#40c4df"/><g fill="#491352"><path d="m400.855469 102.710938-96.980469-98.535157c-2.617188-2.652343-6.253906-4.175781-9.976562-4.175781h-279.398438c-7.71875 0-14 6.28125-14 14v478c0 7.71875 6.28125 14 14 14h376.375c7.71875 0 14-6.28125 14-14 0-16.128906 0-362.933594 0-379.46875 0-3.695312-1.425781-7.183594-4.019531-9.820312zm-3.980469 389.292968c0 3.304688-2.691406 6-6 6h-376.375c-3.308594 0-6-2.695312-6-6v-65.773437h388.375zm0-73.773437h-388.375v-237.769531h388.375zm0-245.769531h-388.375v-158.457032c0-3.308594 2.691406-6 6-6h279.398438c1.59375 0 3.15625.648438 4.277343 1.789063l96.976563 98.53125c1.113281 1.128906 1.722656 2.625 1.722656 4.210937zm0 0"/><path d="m33.527344 352.796875c11.070312 0 20.078125-9.160156 20.078125-20.417969 0-11.257812-9.007813-20.414062-20.078125-20.414062-11.453125 0-20.417969 8.96875-20.417969 20.414062 0 11.449219 8.964844 20.417969 20.417969 20.417969zm0-32.832031c6.660156 0 12.078125 5.570312 12.078125 12.414062 0 6.847656-5.417969 12.417969-12.078125 12.417969-6.964844 0-12.417969-5.453125-12.417969-12.417969 0-6.960937 5.453125-12.414062 12.417969-12.414062zm0 0"/><path d="m157.070312 320.304688 2.585938-6.664063c.480469-1.230469.316406-2.617187-.425781-3.707031-.746094-1.089844-1.980469-1.742188-3.300781-1.742188h-24.503907c-3.03125 0-3.722656 2.523438-4.945312 5.191406-8.617188 18.816407-44.164063 16.570313-44.164063-15.332031 0-32.125 35.613282-34.234375 44.144532-15.367187 1.214843 2.683594 1.890624 5.226562 4.945312 5.226562h24.5c2.804688 0 4.742188-2.820312 3.734375-5.4375l-2.566406-6.652344c-20.148438-52.3125-104.671875-41.304687-104.671875 22.230469 0 63.171875 84.511718 74.175781 104.667968 22.253907zm-6.988281-40.394532h-16.089843c-12.664063-28.03125-59.671876-21.753906-59.671876 18.140625 0 39.695313 46.839844 46.015625 59.675782 18.140625h16.09375c-18.019532 46.480469-89.683594 35.117188-89.683594-18.140625-.003906-53.523437 71.609375-65.054687 89.675781-18.140625zm0 0"/><path d="m178.433594 314.605469h26.5v26.5c0 8.253906 6.714844 14.96875 14.96875 14.96875s14.96875-6.714844 14.96875-14.96875v-26.5h26.5c8.253906 0 14.972656-6.71875 14.972656-14.972657 0-8.253906-6.71875-14.96875-14.972656-14.96875h-26.5v-26.5c0-8.253906-6.714844-14.96875-14.96875-14.96875s-14.96875 6.714844-14.96875 14.96875v26.5h-26.5c-8.257813 0-14.972656 6.714844-14.972656 14.96875 0 8.253907 6.714843 14.972657 14.972656 14.972657zm0-21.945313h30.5c2.207031 0 4-1.789062 4-4v-30.5c0-3.84375 3.125-6.96875 6.96875-6.96875s6.96875 3.125 6.96875 6.96875v30.5c0 2.210938 1.792968 4 4 4h30.5c3.84375 0 6.972656 3.128906 6.972656 6.972656s-3.128906 6.96875-6.972656 6.96875h-30.5c-2.207032 0-4 1.792969-4 4v30.5c0 3.84375-3.125 6.96875-6.96875 6.96875s-6.96875-3.125-6.96875-6.96875v-30.5c0-2.207031-1.792969-4-4-4h-30.5c-3.84375 0-6.972656-3.125-6.972656-6.96875s3.128906-6.972656 6.972656-6.972656zm0 0"/><path d="m294.355469 314.605469h26.5v26.5c0 8.253906 6.714843 14.96875 14.96875 14.96875 8.257812 0 14.972656-6.714844 14.972656-14.96875v-26.5h26.5c8.253906 0 14.972656-6.71875 14.972656-14.972657 0-8.253906-6.71875-14.96875-14.972656-14.96875h-26.5v-26.5c0-8.253906-6.714844-14.96875-14.972656-14.96875-8.253907 0-14.96875 6.714844-14.96875 14.96875v26.5h-26.5c-8.253907 0-14.96875 6.714844-14.96875 14.96875 0 8.253907 6.714843 14.972657 14.96875 14.972657zm0-21.945313h30.5c2.207031 0 4-1.789062 4-4v-30.5c0-3.84375 3.125-6.96875 6.96875-6.96875 3.847656 0 6.972656 3.125 6.972656 6.96875v30.5c0 2.210938 1.792969 4 4 4h30.5c3.84375 0 6.972656 3.128906 6.972656 6.972656s-3.128906 6.96875-6.972656 6.96875h-30.5c-2.207031 0-4 1.792969-4 4v30.5c0 3.84375-3.125 6.96875-6.972656 6.96875-3.84375 0-6.96875-3.125-6.96875-6.96875v-30.5c0-2.207031-1.792969-4-4-4h-30.5c-3.84375 0-6.96875-3.125-6.96875-6.96875s3.125-6.972656 6.96875-6.972656zm0 0"/></g></svg>