<svg xmlns="http://www.w3.org/2000/svg" width="30" height="30" viewBox="0 0 30 30">
    <g fill="currentColor" fill-rule="evenodd">
        <g fill="currentColor">
            <g>
                <g>
                    <g>
                        <path d="M24.753 26.028l-.063.062-.121.117-.061.057C21.915 28.702 18.456 30 14.838 30c-5.865 0-10.908-3.395-13.32-8.357C.545 19.646 0 17.39 0 15c0-2.39.546-4.646 1.52-6.647l4.99 3.86c-.286.875-.44 1.812-.44 2.787 0 .853.118 1.678.339 2.457l.097.32c1.147 3.541 4.435 6.087 8.331 6.087 2.072 0 3.888-.537 5.274-1.54l.097-.07-.097.07c.064-.046.127-.093.19-.141l-.093.07c.075-.056.149-.114.222-.173l-.13.103c.064-.05.127-.1.19-.152l-.06.05c.138-.114.273-.233.401-.356.048-.046.095-.092.14-.138l.102-.106-.102.106c.058-.06.115-.119.17-.18l-.068.074c.06-.064.12-.13.177-.196l-.109.122c.062-.067.122-.136.18-.206l-.071.084c.057-.066.113-.133.168-.202l-.097.118c.056-.066.11-.133.163-.201l-.066.083c.188-.234.36-.483.516-.745l.045-.076-.045.076c.043-.073.085-.146.126-.22l-.081.144c.05-.087.1-.177.147-.268l-.066.123c.047-.086.092-.173.136-.262l-.07.14c.035-.069.07-.138.102-.207l-.032.067c.092-.189.177-.384.254-.586.014-.037.028-.073.04-.109l-.04.109c.072-.187.136-.38.193-.577l.018-.063-.018.063c.024-.083.047-.166.068-.251l-.05.188c.025-.09.049-.182.071-.275l.063-.286h-7.958v-5.795h13.826c.202.886.337 1.84.337 2.727 0 .195-.003.388-.008.579l-.009.245-.006.125c-.05 1.062-.188 2.07-.402 3.021l-.037.162.037-.162c-.04.18-.083.358-.129.534l-.031.117-.05.18c-.016.059-.033.115-.05.172l-.058.196c-.052.168-.107.335-.164.5l-.022.065c-.03.084-.06.168-.091.25l-.008.022c-.12.319-.248.63-.385.933l-.05.109-.082.174-.085.173c-.147.295-.302.583-.467.863l-.06.101-.111.183-.067.106c-.031.05-.063.1-.095.148l-.084.129c-.105.156-.212.31-.321.46l-.115.155c-.11.148-.225.293-.34.436l-.075.09-.123.146-.1.115-.067.076c-.14.158-.284.312-.43.463l-.113.113-.05.05zM14.837 0c3.642 0 6.908 1.331 9.495 3.505l.284.245L20.3 8.114c-1.484-1.228-3.372-1.978-5.463-1.978-3.891 0-7.176 2.54-8.327 6.075L1.52 8.353C3.932 3.393 8.973 0 14.836 0z" transform="translate(-733.000000, -843.000000) translate(215.000000, 279.000000) translate(498.000000, 548.000000) translate(20.000000, 16.000000)"/>
                    </g>
                </g>
            </g>
        </g>
    </g>
</svg>
