<svg xmlns="http://www.w3.org/2000/svg" viewBox="0 0 30 30">
    <g fill="none" fill-rule="evenodd">
        <g fill="#FFF">
            <g>
                <g>
                    <path d="M30 15.092C30 6.757 23.284 0 15 0 6.716 0 0 6.757 0 15.092 0 22.624 5.485 28.868 12.656 30V19.454H8.848v-4.362h3.808v-3.325c0-3.783 2.24-5.872 5.666-5.872 1.641 0 3.358.295 3.358.295v3.714h-1.892c-1.863 0-2.444 1.163-2.444 2.357v2.83h4.16l-.665 4.363h-3.495V30C24.514 28.868 30 22.624 30 15.092" transform="translate(-733.000000, -683.000000) translate(215.000000, 279.000000) translate(498.000000, 388.000000) translate(20.000000, 16.000000)"/>
                </g>
            </g>
        </g>
    </g>
</svg>
