
<svg xmlns="http://www.w3.org/2000/svg" xmlns:xlink="http://www.w3.org/1999/xlink" viewBox="0 0 50 50">
    <defs>
        <path id="a" d="M0 0h50v50H0z"/>
        <path id="c" d="M0 0h50v50H0z"/>
    </defs>
    <g fill="none" fill-rule="evenodd">
        <mask id="b" fill="#fff">
            <use xlink:href="#a"/>
        </mask>
        <use fill="#DEDEDE" xlink:href="#a"/>
        <path fill="#FFF" d="M33.312 12.798v9.456a8.302 8.302 0 0 1-3.167 6.53.998.998 0 0 0-.395.782v1.465a4.896 4.896 0 0 0 2.838 4.438l11.12 5.175c.717.449 1.208 1.194 1.282 2.05l.007.156c.003.094 0 .119 0 .144v5.375a.633.633 0 0 1-.634.631H5.644a.633.633 0 0 1-.634-.631v-5.252A2.5 2.5 0 0 1 5 42.92c0-.966.522-1.808 1.301-2.267l11.116-5.185a4.897 4.897 0 0 0 2.837-4.438v-1.465a1 1 0 0 0-.394-.781 8.303 8.303 0 0 1-3.166-6.53V17.31C16.694 12.72 20.412 9 25.003 9h10.22c-1.085.794-1.91 1.86-1.91 3.798z" mask="url(#b)"/>
        <path stroke="#000" stroke-opacity=".05" d="M.5.5h49v49H.5z"/>
    </g>
</svg>
